<?xml version="1.0" encoding="UTF-8" standalone="no"?><!DOCTYPE svg PUBLIC "-//W3C//DTD SVG 1.1//EN" "http://www.w3.org/Graphics/SVG/1.1/DTD/svg11.dtd"><!-- Generated by graphviz version 2.40.1 (20161225.0304)
 --><!-- Title: G Pages: 1 --><svg xmlns="http://www.w3.org/2000/svg" xmlns:xlink="http://www.w3.org/1999/xlink" width="463pt" height="399pt" viewBox="0.00 0.00 462.83 399.20">
<g id="graph0" class="graph" transform="scale(1 1) rotate(0) translate(4 395.2)">
<title>G</title>
<polygon fill="#ffffff" stroke="transparent" points="-4,4 -4,-395.2 458.8311,-395.2 458.8311,4 -4,4"/>
<!-- 0 -->
<g id="node1" class="node">
<title>0</title>
<ellipse fill="none" stroke="#000000" cx="53.9405" cy="-284.4" rx="27" ry="18"/>
<text text-anchor="middle" x="53.9405" y="-280.2" font-family="Times,serif" font-size="14.00" fill="#000000">0</text>
</g>
<!-- 0&#45;&gt;0 -->
<g id="edge2" class="edge">
<title>0-&gt;0</title>
<path fill="none" stroke="#000000" d="M78.473,-292.5211C89.4483,-293.2945 98.9405,-290.5875 98.9405,-284.4 98.9405,-280.2428 94.6556,-277.6567 88.5148,-276.6417"/>
<polygon fill="#000000" stroke="#000000" points="88.5929,-273.1424 78.473,-276.2789 88.34,-280.1378 88.5929,-273.1424"/>
<text text-anchor="middle" x="111.3858" y="-280.2" font-family="Times,serif" font-size="14.00" fill="#000000">1/10</text>
</g>
<!-- 2 -->
<g id="node2" class="node">
<title>2</title>
<ellipse fill="none" stroke="#000000" cx="199.9405" cy="-195.6" rx="27" ry="18"/>
<text text-anchor="middle" x="199.9405" y="-191.4" font-family="Times,serif" font-size="14.00" fill="#000000">2</text>
</g>
<!-- 0&#45;&gt;2 -->
<g id="edge1" class="edge">
<title>0-&gt;2</title>
<path fill="none" stroke="#000000" d="M68.3483,-268.9769C79.6665,-257.5294 96.2719,-242.1408 113.0499,-231.6 129.3089,-221.3853 148.965,-212.9587 165.4664,-206.8329"/>
<polygon fill="#000000" stroke="#000000" points="167.0401,-209.9871 175.2747,-203.3206 164.6801,-203.3969 167.0401,-209.9871"/>
<text text-anchor="middle" x="126.3858" y="-235.8" font-family="Times,serif" font-size="14.00" fill="#000000">2/10</text>
</g>
<!-- 1 -->
<g id="node3" class="node">
<title>1</title>
<ellipse fill="none" stroke="#000000" cx="199.9405" cy="-18" rx="27" ry="18"/>
<text text-anchor="middle" x="199.9405" y="-13.8" font-family="Times,serif" font-size="14.00" fill="#000000">1</text>
</g>
<!-- 0&#45;&gt;1 -->
<g id="edge3" class="edge">
<title>0-&gt;1</title>
<path fill="none" stroke="#000000" d="M47.4885,-266.8076C38.5062,-239.8827 24.3685,-186.9315 34.0499,-142.8 39.7127,-116.987 43.358,-110.144 58.9405,-88.8 72.4439,-70.3038 77.2847,-65.7517 96.9405,-54 117.8987,-41.4696 143.8662,-32.4304 164.4843,-26.5437"/>
<polygon fill="#000000" stroke="#000000" points="165.4082,-29.9196 174.1307,-23.9055 163.5616,-23.1675 165.4082,-29.9196"/>
<text text-anchor="middle" x="47.3858" y="-147" font-family="Times,serif" font-size="14.00" fill="#000000">2/10</text>
</g>
<!-- 5 -->
<g id="node4" class="node">
<title>5</title>
<ellipse fill="none" stroke="#000000" cx="94.9405" cy="-106.8" rx="27" ry="18"/>
<text text-anchor="middle" x="94.9405" y="-102.6" font-family="Times,serif" font-size="14.00" fill="#000000">5</text>
</g>
<!-- 0&#45;&gt;5 -->
<g id="edge4" class="edge">
<title>0-&gt;5</title>
<path fill="none" stroke="#000000" d="M52.6874,-266.2484C51.4404,-238.593 51.6394,-184.7006 67.9405,-142.8 69.6108,-138.5065 71.9443,-134.2809 74.5467,-130.3197"/>
<polygon fill="#000000" stroke="#000000" points="77.4453,-132.2852 80.5204,-122.1465 71.7939,-128.1546 77.4453,-132.2852"/>
<text text-anchor="middle" x="71.3858" y="-191.4" font-family="Times,serif" font-size="14.00" fill="#000000">5/10</text>
</g>
<!-- 2&#45;&gt;0 -->
<g id="edge9" class="edge">
<title>2-&gt;0</title>
<path fill="none" stroke="#000000" d="M183.8123,-210.3005C168.8247,-223.7801 147.4322,-242.5129 137.9405,-248.4 122.1966,-258.1648 103.3393,-266.5114 87.4841,-272.7019"/>
<polygon fill="#000000" stroke="#000000" points="86.168,-269.4577 78.0546,-276.2712 88.6461,-276.0044 86.168,-269.4577"/>
<text text-anchor="middle" x="171.3858" y="-235.8" font-family="Times,serif" font-size="14.00" fill="#000000">2/10</text>
</g>
<!-- 2&#45;&gt;2 -->
<g id="edge11" class="edge">
<title>2-&gt;2</title>
<path fill="none" stroke="#000000" d="M224.473,-203.7211C235.4483,-204.4945 244.9405,-201.7875 244.9405,-195.6 244.9405,-191.4428 240.6556,-188.8567 234.5148,-187.8417"/>
<polygon fill="#000000" stroke="#000000" points="234.5929,-184.3424 224.473,-187.4789 234.34,-191.3378 234.5929,-184.3424"/>
<text text-anchor="middle" x="257.3858" y="-191.4" font-family="Times,serif" font-size="14.00" fill="#000000">1/10</text>
</g>
<!-- 2&#45;&gt;1 -->
<g id="edge10" class="edge">
<title>2-&gt;1</title>
<path fill="none" stroke="#000000" d="M199.9405,-177.5934C199.9405,-146.612 199.9405,-83.006 199.9405,-46.1346"/>
<polygon fill="#000000" stroke="#000000" points="203.4406,-46.0542 199.9405,-36.0543 196.4406,-46.0543 203.4406,-46.0542"/>
<text text-anchor="middle" x="212.3858" y="-102.6" font-family="Times,serif" font-size="14.00" fill="#000000">3/10</text>
</g>
<!-- 2&#45;&gt;5 -->
<g id="edge12" class="edge">
<title>2-&gt;5</title>
<path fill="none" stroke="#000000" d="M175.3724,-187.9455C152.9107,-180.5111 121.8824,-169.0014 113.0499,-159.6 106.6591,-152.7976 102.5138,-143.6402 99.8289,-134.8626"/>
<polygon fill="#000000" stroke="#000000" points="103.1523,-133.7292 97.3009,-124.8968 96.3672,-135.4504 103.1523,-133.7292"/>
<text text-anchor="middle" x="126.3858" y="-147" font-family="Times,serif" font-size="14.00" fill="#000000">4/10</text>
</g>
<!-- 1&#45;&gt;0 -->
<g id="edge5" class="edge">
<title>1-&gt;0</title>
<path fill="none" stroke="#000000" d="M173.244,-21.3276C145.8219,-25.6449 102.6428,-34.9995 69.9405,-54 27.2173,-78.8228 16.0734,-95.1363 3.0499,-142.8 -8.3819,-184.6383 16.4208,-231.7685 35.2661,-259.7279"/>
<polygon fill="#000000" stroke="#000000" points="32.5225,-261.9121 41.1219,-268.101 38.2589,-257.9003 32.5225,-261.9121"/>
<text text-anchor="middle" x="16.3858" y="-147" font-family="Times,serif" font-size="14.00" fill="#000000">1/10</text>
</g>
<!-- 1&#45;&gt;2 -->
<g id="edge7" class="edge">
<title>1-&gt;2</title>
<path fill="none" stroke="#000000" d="M209.1845,-35.1564C216.1667,-49.141 225.1689,-69.642 228.9405,-88.8 232.031,-104.4987 232.031,-109.1013 228.9405,-124.8 225.935,-140.0666 219.608,-156.1859 213.6285,-169.181"/>
<polygon fill="#000000" stroke="#000000" points="210.3547,-167.9136 209.1845,-178.4436 216.6659,-170.9416 210.3547,-167.9136"/>
<text text-anchor="middle" x="244.3858" y="-102.6" font-family="Times,serif" font-size="14.00" fill="#000000">6/10</text>
</g>
<!-- 1&#45;&gt;1 -->
<g id="edge6" class="edge">
<title>1-&gt;1</title>
<path fill="none" stroke="#000000" d="M224.473,-26.1211C235.4483,-26.8945 244.9405,-24.1875 244.9405,-18 244.9405,-13.8428 240.6556,-11.2567 234.5148,-10.2417"/>
<polygon fill="#000000" stroke="#000000" points="234.5929,-6.7424 224.473,-9.8789 234.34,-13.7378 234.5929,-6.7424"/>
<text text-anchor="middle" x="257.3858" y="-13.8" font-family="Times,serif" font-size="14.00" fill="#000000">1/10</text>
</g>
<!-- 1&#45;&gt;5 -->
<g id="edge8" class="edge">
<title>1-&gt;5</title>
<path fill="none" stroke="#000000" d="M183.1123,-32.2318C165.9831,-46.7183 139.2414,-69.3341 119.697,-85.863"/>
<polygon fill="#000000" stroke="#000000" points="117.186,-83.4028 111.8106,-92.5327 121.7062,-88.7477 117.186,-83.4028"/>
<text text-anchor="middle" x="169.3858" y="-58.2" font-family="Times,serif" font-size="14.00" fill="#000000">2/10</text>
</g>
<!-- 5&#45;&gt;0 -->
<g id="edge20" class="edge">
<title>5-&gt;0</title>
<path fill="none" stroke="#000000" d="M95.8258,-124.8962C96.4076,-146.4106 95.9096,-183.2253 87.9405,-213.6 83.8195,-229.3075 76.1745,-245.723 69.1761,-258.7883"/>
<polygon fill="#000000" stroke="#000000" points="66.0491,-257.2101 64.2541,-267.6518 72.1688,-260.6085 66.0491,-257.2101"/>
<text text-anchor="middle" x="107.3858" y="-191.4" font-family="Times,serif" font-size="14.00" fill="#000000">1/10</text>
</g>
<!-- 5&#45;&gt;2 -->
<g id="edge22" class="edge">
<title>5-&gt;2</title>
<path fill="none" stroke="#000000" d="M112.1261,-121.1318C120.0055,-127.7172 129.4601,-135.6393 137.9405,-142.8 150.2838,-153.2225 163.9604,-164.8601 175.321,-174.5516"/>
<polygon fill="#000000" stroke="#000000" points="173.2536,-177.3887 183.1317,-181.2194 177.7985,-172.0647 173.2536,-177.3887"/>
<text text-anchor="middle" x="169.3858" y="-147" font-family="Times,serif" font-size="14.00" fill="#000000">5/10</text>
</g>
<!-- 5&#45;&gt;1 -->
<g id="edge21" class="edge">
<title>5-&gt;1</title>
<path fill="none" stroke="#000000" d="M96.1315,-88.7167C97.7505,-77.5059 101.4889,-63.484 110.0499,-54 123.9263,-38.6276 145.2625,-29.7136 163.6662,-24.6021"/>
<polygon fill="#000000" stroke="#000000" points="164.6709,-27.9587 173.5227,-22.1367 162.9723,-21.1679 164.6709,-27.9587"/>
<text text-anchor="middle" x="123.3858" y="-58.2" font-family="Times,serif" font-size="14.00" fill="#000000">2/10</text>
</g>
<!-- 5&#45;&gt;5 -->
<g id="edge23" class="edge">
<title>5-&gt;5</title>
<path fill="none" stroke="#000000" d="M119.473,-114.9211C130.4483,-115.6945 139.9405,-112.9875 139.9405,-106.8 139.9405,-102.6428 135.6556,-100.0567 129.5148,-99.0417"/>
<polygon fill="#000000" stroke="#000000" points="129.5929,-95.5424 119.473,-98.6789 129.34,-102.5378 129.5929,-95.5424"/>
<text text-anchor="middle" x="152.3858" y="-102.6" font-family="Times,serif" font-size="14.00" fill="#000000">2/10</text>
</g>
<!-- 3 -->
<g id="node5" class="node">
<title>3</title>
<ellipse fill="none" stroke="#000000" cx="269.9405" cy="-373.2" rx="27" ry="18"/>
<text text-anchor="middle" x="269.9405" y="-369" font-family="Times,serif" font-size="14.00" fill="#000000">3</text>
</g>
<!-- 3&#45;&gt;2 -->
<g id="edge13" class="edge">
<title>3-&gt;2</title>
<path fill="none" stroke="#000000" d="M252.9667,-359.1453C238.5299,-346.0916 218.6565,-325.2689 209.0499,-302.4 198.5208,-277.3351 197.0425,-246.0962 197.7138,-223.8931"/>
<polygon fill="#000000" stroke="#000000" points="201.2154,-223.9382 198.1858,-213.7858 194.223,-223.6116 201.2154,-223.9382"/>
<text text-anchor="middle" x="222.3858" y="-280.2" font-family="Times,serif" font-size="14.00" fill="#000000">3/10</text>
</g>
<!-- 3&#45;&gt;3 -->
<g id="edge14" class="edge">
<title>3-&gt;3</title>
<path fill="none" stroke="#000000" d="M294.473,-381.3211C305.4483,-382.0945 314.9405,-379.3875 314.9405,-373.2 314.9405,-369.0428 310.6556,-366.4567 304.5148,-365.4417"/>
<polygon fill="#000000" stroke="#000000" points="304.5929,-361.9424 294.473,-365.0789 304.34,-368.9378 304.5929,-361.9424"/>
<text text-anchor="middle" x="327.3858" y="-369" font-family="Times,serif" font-size="14.00" fill="#000000">3/10</text>
</g>
<!-- 4 -->
<g id="node6" class="node">
<title>4</title>
<ellipse fill="none" stroke="#000000" cx="352.9405" cy="-195.6" rx="27" ry="18"/>
<text text-anchor="middle" x="352.9405" y="-191.4" font-family="Times,serif" font-size="14.00" fill="#000000">4</text>
</g>
<!-- 3&#45;&gt;4 -->
<g id="edge15" class="edge">
<title>3-&gt;4</title>
<path fill="none" stroke="#000000" d="M289.9495,-361.043C308.3225,-348.7131 334.6478,-327.8503 347.9405,-302.4 360.6262,-278.1119 360.3442,-246.322 357.8318,-223.7582"/>
<polygon fill="#000000" stroke="#000000" points="361.2955,-223.2526 356.5129,-213.7986 354.356,-224.1715 361.2955,-223.2526"/>
<text text-anchor="middle" x="370.3858" y="-280.2" font-family="Times,serif" font-size="14.00" fill="#000000">1/10</text>
</g>
<!-- 6 -->
<g id="node7" class="node">
<title>6</title>
<ellipse fill="none" stroke="#000000" cx="269.9405" cy="-284.4" rx="27" ry="18"/>
<text text-anchor="middle" x="269.9405" y="-280.2" font-family="Times,serif" font-size="14.00" fill="#000000">6</text>
</g>
<!-- 3&#45;&gt;6 -->
<g id="edge16" class="edge">
<title>3-&gt;6</title>
<path fill="none" stroke="#000000" d="M269.9405,-354.8006C269.9405,-342.6949 269.9405,-326.6076 269.9405,-312.8674"/>
<polygon fill="#000000" stroke="#000000" points="273.4406,-312.472 269.9405,-302.472 266.4406,-312.4721 273.4406,-312.472"/>
<text text-anchor="middle" x="282.3858" y="-324.6" font-family="Times,serif" font-size="14.00" fill="#000000">1/10</text>
</g>
<!-- 7 -->
<g id="node8" class="node">
<title>7</title>
<ellipse fill="none" stroke="#000000" cx="384.9405" cy="-106.8" rx="27" ry="18"/>
<text text-anchor="middle" x="384.9405" y="-102.6" font-family="Times,serif" font-size="14.00" fill="#000000">7</text>
</g>
<!-- 3&#45;&gt;7 -->
<g id="edge17" class="edge">
<title>3-&gt;7</title>
<path fill="none" stroke="#000000" d="M292.9704,-363.3577C307.6836,-356.7062 326.9343,-347.3169 342.9405,-337.2 399.9427,-301.1709 415.5658,-279.258 430.9405,-213.6 438.3686,-181.878 429.5663,-170.2006 411.9405,-142.8 409.4481,-138.9255 406.6714,-134.9258 403.8735,-131.0641"/>
<polygon fill="#000000" stroke="#000000" points="406.5975,-128.8621 397.8169,-122.9331 400.9838,-133.0436 406.5975,-128.8621"/>
<text text-anchor="middle" x="438.3858" y="-235.8" font-family="Times,serif" font-size="14.00" fill="#000000">2/10</text>
</g>
<!-- 4&#45;&gt;4 -->
<g id="edge18" class="edge">
<title>4-&gt;4</title>
<path fill="none" stroke="#000000" d="M377.473,-203.7211C388.4483,-204.4945 397.9405,-201.7875 397.9405,-195.6 397.9405,-191.4428 393.6556,-188.8567 387.5148,-187.8417"/>
<polygon fill="#000000" stroke="#000000" points="387.5929,-184.3424 377.473,-187.4789 387.34,-191.3378 387.5929,-184.3424"/>
<text text-anchor="middle" x="410.3858" y="-191.4" font-family="Times,serif" font-size="14.00" fill="#000000">6/10</text>
</g>
<!-- 4&#45;&gt;7 -->
<g id="edge19" class="edge">
<title>4-&gt;7</title>
<path fill="none" stroke="#000000" d="M367.0378,-179.7974C371.5814,-173.8557 376.1575,-166.7898 378.9405,-159.6 381.9044,-151.9428 383.5327,-143.2281 384.3958,-135.1166"/>
<polygon fill="#000000" stroke="#000000" points="387.9012,-135.1686 385.1376,-124.9405 380.9197,-134.6596 387.9012,-135.1686"/>
<text text-anchor="middle" x="395.3858" y="-147" font-family="Times,serif" font-size="14.00" fill="#000000">4/10</text>
</g>
<!-- 6&#45;&gt;2 -->
<g id="edge25" class="edge">
<title>6-&gt;2</title>
<path fill="none" stroke="#000000" d="M257.1014,-268.1127C246.4446,-254.5938 231.1315,-235.168 219.0365,-219.8247"/>
<polygon fill="#000000" stroke="#000000" points="221.6376,-217.4706 212.6982,-211.784 216.1402,-221.8042 221.6376,-217.4706"/>
<text text-anchor="middle" x="254.3858" y="-235.8" font-family="Times,serif" font-size="14.00" fill="#000000">5/10</text>
</g>
<!-- 6&#45;&gt;1 -->
<g id="edge24" class="edge">
<title>6-&gt;1</title>
<path fill="none" stroke="#000000" d="M273.2517,-266.4321C278.956,-230.7751 287.6235,-149.2956 260.9405,-88.8 252.5662,-69.8138 237.3337,-52.1268 224.1861,-39.1798"/>
<polygon fill="#000000" stroke="#000000" points="226.4177,-36.4726 216.7535,-32.1306 221.6007,-41.5516 226.4177,-36.4726"/>
<text text-anchor="middle" x="290.3858" y="-147" font-family="Times,serif" font-size="14.00" fill="#000000">1/10</text>
</g>
<!-- 6&#45;&gt;4 -->
<g id="edge26" class="edge">
<title>6-&gt;4</title>
<path fill="none" stroke="#000000" d="M287.3184,-270.3344C294.8607,-263.9328 303.6231,-256.0819 310.9405,-248.4 319.3525,-239.569 327.8698,-229.1868 335.0152,-219.9762"/>
<polygon fill="#000000" stroke="#000000" points="337.8729,-222.0006 341.1492,-211.925 332.3048,-217.7584 337.8729,-222.0006"/>
<text text-anchor="middle" x="338.3858" y="-235.8" font-family="Times,serif" font-size="14.00" fill="#000000">2/10</text>
</g>
<!-- 6&#45;&gt;6 -->
<g id="edge27" class="edge">
<title>6-&gt;6</title>
<path fill="none" stroke="#000000" d="M294.473,-292.5211C305.4483,-293.2945 314.9405,-290.5875 314.9405,-284.4 314.9405,-280.2428 310.6556,-277.6567 304.5148,-276.6417"/>
<polygon fill="#000000" stroke="#000000" points="304.5929,-273.1424 294.473,-276.2789 304.34,-280.1378 304.5929,-273.1424"/>
<text text-anchor="middle" x="327.3858" y="-280.2" font-family="Times,serif" font-size="14.00" fill="#000000">2/10</text>
</g>
<!-- 7&#45;&gt;4 -->
<g id="edge28" class="edge">
<title>7-&gt;4</title>
<path fill="none" stroke="#000000" d="M366.9784,-120.2487C360.3403,-126.3191 353.5791,-134.0876 350.0499,-142.8 346.8994,-150.5776 346.3672,-159.5325 346.9852,-167.8325"/>
<polygon fill="#000000" stroke="#000000" points="343.5273,-168.3849 348.2727,-177.8576 350.4703,-167.4932 343.5273,-168.3849"/>
<text text-anchor="middle" x="362.3858" y="-147" font-family="Times,serif" font-size="14.00" fill="#000000">6/10</text>
</g>
<!-- 7&#45;&gt;7 -->
<g id="edge29" class="edge">
<title>7-&gt;7</title>
<path fill="none" stroke="#000000" d="M409.473,-114.9211C420.4483,-115.6945 429.9405,-112.9875 429.9405,-106.8 429.9405,-102.6428 425.6556,-100.0567 419.5148,-99.0417"/>
<polygon fill="#000000" stroke="#000000" points="419.5929,-95.5424 409.473,-98.6789 419.34,-102.5378 419.5929,-95.5424"/>
<text text-anchor="middle" x="442.3858" y="-102.6" font-family="Times,serif" font-size="14.00" fill="#000000">4/10</text>
</g>
</g>
</svg>